<svg width="67" height="55" viewBox="0 0 67 55" fill="none" xmlns="http://www.w3.org/2000/svg">
<path d="M50.25 5.72501C50.25 2.95079 47.9992 0.700012 45.225 0.700012H35.175C32.4008 0.700012 30.15 2.95079 30.15 5.72501V10.75H23.45V3.21251C23.45 1.82017 22.3298 0.700012 20.9375 0.700012C19.5452 0.700012 18.425 1.82017 18.425 3.21251V10.75H11.725V3.21251C11.725 1.82017 10.6048 0.700012 9.2125 0.700012C7.82016 0.700012 6.7 1.82017 6.7 3.21251V10.75H5.025C2.25078 10.75 0 13.0008 0 15.775V49.275C0 52.0492 2.25078 54.3 5.025 54.3H61.975C64.7492 54.3 67 52.0492 67 49.275V25.825C67 23.0508 64.7492 20.8 61.975 20.8H50.25V5.72501ZM60.3 39.225V42.575C60.3 43.4963 59.5462 44.25 58.625 44.25H55.275C54.3537 44.25 53.6 43.4963 53.6 42.575V39.225C53.6 38.3038 54.3537 37.55 55.275 37.55H58.625C59.5462 37.55 60.3 38.3038 60.3 39.225ZM25.125 44.25H21.775C20.8538 44.25 20.1 43.4963 20.1 42.575V39.225C20.1 38.3038 20.8538 37.55 21.775 37.55H25.125C26.0462 37.55 26.8 38.3038 26.8 39.225V42.575C26.8 43.4963 26.0462 44.25 25.125 44.25ZM13.4 42.575C13.4 43.4963 12.6462 44.25 11.725 44.25H8.375C7.45375 44.25 6.7 43.4963 6.7 42.575V39.225C6.7 38.3038 7.45375 37.55 8.375 37.55H11.725C12.6462 37.55 13.4 38.3038 13.4 39.225V42.575ZM58.625 27.5C59.5462 27.5 60.3 28.2538 60.3 29.175V32.525C60.3 33.4463 59.5462 34.2 58.625 34.2H55.275C54.3537 34.2 53.6 33.4463 53.6 32.525V29.175C53.6 28.2538 54.3537 27.5 55.275 27.5H58.625ZM26.8 19.125V22.475C26.8 23.3963 26.0462 24.15 25.125 24.15H21.775C20.8538 24.15 20.1 23.3963 20.1 22.475V19.125C20.1 18.2038 20.8538 17.45 21.775 17.45H25.125C26.0462 17.45 26.8 18.2038 26.8 19.125ZM11.725 17.45C12.6462 17.45 13.4 18.2038 13.4 19.125V22.475C13.4 23.3963 12.6462 24.15 11.725 24.15H8.375C7.45375 24.15 6.7 23.3963 6.7 22.475V19.125C6.7 18.2038 7.45375 17.45 8.375 17.45H11.725ZM26.8 32.525C26.8 33.4463 26.0462 34.2 25.125 34.2H21.775C20.8538 34.2 20.1 33.4463 20.1 32.525V29.175C20.1 28.2538 20.8538 27.5 21.775 27.5H25.125C26.0462 27.5 26.8 28.2538 26.8 29.175V32.525ZM11.725 34.2H8.375C7.45375 34.2 6.7 33.4463 6.7 32.525V29.175C6.7 28.2538 7.45375 27.5 8.375 27.5H11.725C12.6462 27.5 13.4 28.2538 13.4 29.175V32.525C13.4 33.4463 12.6462 34.2 11.725 34.2ZM43.55 29.175V32.525C43.55 33.4463 42.7962 34.2 41.875 34.2H38.525C37.6037 34.2 36.85 33.4463 36.85 32.525V29.175C36.85 28.2538 37.6037 27.5 38.525 27.5H41.875C42.7962 27.5 43.55 28.2538 43.55 29.175ZM41.875 7.40001C42.7962 7.40001 43.55 8.15376 43.55 9.07501V12.425C43.55 13.3463 42.7962 14.1 41.875 14.1H38.525C37.6037 14.1 36.85 13.3463 36.85 12.425V9.07501C36.85 8.15376 37.6037 7.40001 38.525 7.40001H41.875ZM43.55 19.125V22.475C43.55 23.3963 42.7962 24.15 41.875 24.15H38.525C37.6037 24.15 36.85 23.3963 36.85 22.475V19.125C36.85 18.2038 37.6037 17.45 38.525 17.45H41.875C42.7962 17.45 43.55 18.2038 43.55 19.125Z" fill="black"/>
</svg>
