<svg width="64" height="64" viewBox="0 0 64 64" fill="none" xmlns="http://www.w3.org/2000/svg">
<path fill-rule="evenodd" clip-rule="evenodd" d="M54.028 49.296C57.8538 44.4219 59.9548 38.4165 60.0018 32.2204C60.0489 26.0243 58.0393 19.9876 54.288 15.056C51.5205 11.415 47.9032 8.50735 43.7524 6.58721C39.6015 4.66707 35.0436 3.7929 30.4769 4.04112C25.9102 4.28935 21.4739 5.65241 17.5556 8.01114C13.6374 10.3699 10.3566 13.6525 8 17.572V8.00001H4V22L6 24H20V20H11.244C13.9161 15.3805 18.0499 11.7818 22.9935 9.7714C27.9371 7.76103 33.4092 7.45336 38.547 8.8969C43.6847 10.3404 48.1959 13.4531 51.369 17.744C54.5421 22.0349 56.1967 27.2599 56.0719 32.5952C55.9471 37.9304 54.0499 43.0723 50.6796 47.2101C47.3092 51.3479 42.6575 54.2462 37.4578 55.4479C32.2582 56.6496 26.8064 56.0863 21.9623 53.8469C17.1181 51.6076 13.1572 47.8195 10.704 43.08L7.156 44.928C9.3165 49.0837 12.485 52.631 16.3713 55.2451C20.2576 57.8593 24.7376 59.4568 29.4011 59.8914C34.0646 60.326 38.7626 59.5838 43.0651 57.7327C47.3675 55.8817 51.1368 52.9809 54.028 49.296ZM40.584 45.416L43.416 42.588L32 31.168V16H28V32L28.584 33.416L40.584 45.416Z" fill="black"/>
</svg>
