<svg width="65" height="66" viewBox="0 0 65 66" fill="none" xmlns="http://www.w3.org/2000/svg">
<path d="M48.75 8.25C49.4134 8.25009 50.0536 8.49738 50.5494 8.94497C51.0451 9.39256 51.3618 10.0093 51.4394 10.6783L51.4584 11V55C51.4576 55.7009 51.1933 56.3751 50.7194 56.8848C50.2455 57.3944 49.5979 57.7011 48.9087 57.7422C48.2196 57.7833 47.5411 57.5556 47.0117 57.1058C46.4824 56.6559 46.1422 56.0178 46.0606 55.3217L46.0417 55V41.25H43.3334C42.67 41.2499 42.0297 41.0026 41.534 40.555C41.0383 40.1074 40.7216 39.4907 40.644 38.8217L40.625 38.5V22C40.625 15.9225 44.6875 8.25 48.75 8.25ZM32.5 8.25C33.1634 8.25009 33.8036 8.49738 34.2994 8.94497C34.7951 9.39256 35.1118 10.0093 35.1894 10.6783L35.2084 11V24.75C35.208 27.1889 34.4099 29.5586 32.9392 31.4869C31.4686 33.4152 29.4088 34.7929 27.0834 35.4035V55C27.0826 55.7009 26.8183 56.3751 26.3444 56.8848C25.8705 57.3944 25.2229 57.7011 24.5337 57.7422C23.8446 57.7833 23.1661 57.5556 22.6367 57.1058C22.1074 56.6559 21.7672 56.0178 21.6856 55.3217L21.6667 55V35.4035C19.4335 34.8173 17.4428 33.523 15.984 31.7089C14.5251 29.8948 13.6743 27.6554 13.5552 25.3165L13.5417 24.75V11C13.5425 10.2991 13.8068 9.62491 14.2807 9.11524C14.7545 8.60556 15.4022 8.29885 16.0913 8.25778C16.7804 8.2167 17.459 8.44436 17.9883 8.89423C18.5177 9.3441 18.8579 9.98224 18.9394 10.6783L18.9584 11V24.75C18.9584 25.7154 19.2087 26.6638 19.6841 27.4999C20.1595 28.336 20.8433 29.0303 21.6667 29.513V11C21.6675 10.2991 21.9318 9.62491 22.4057 9.11524C22.8795 8.60556 23.5272 8.29885 24.2163 8.25778C24.9054 8.2167 25.584 8.44436 26.1133 8.89423C26.6427 9.3441 26.9829 9.98224 27.0644 10.6783L27.0834 11L27.0861 29.513C27.8419 29.0694 28.4809 28.4469 28.9487 27.6985C29.4164 26.9501 29.6992 26.098 29.7727 25.2147L29.7917 24.75V11C29.7917 10.2707 30.077 9.57118 30.5849 9.05546C31.0928 8.53973 31.7817 8.25 32.5 8.25Z" fill="black"/>
</svg>
