<svg width="68" height="67" viewBox="0 0 68 67" fill="none" xmlns="http://www.w3.org/2000/svg">
<path d="M0 8.375C0 3.76875 3.06 0 6.8 0H61.2C63.0035 0 64.7331 0.882363 66.0083 2.45298C67.2836 4.0236 68 6.15381 68 8.375V58.625C68 60.8462 67.2836 62.9764 66.0083 64.547C64.7331 66.1176 63.0035 67 61.2 67H6.8C4.99653 67 3.26692 66.1176 1.99167 64.547C0.716427 62.9764 0 60.8462 0 58.625V8.375ZM37.4 46.0625L27.2 33.5L6.8 58.625H61.2L44.2 37.6875L37.4 46.0625ZM51 29.3125C52.8035 29.3125 54.5331 28.4301 55.8083 26.8595C57.0836 25.2889 57.8 23.1587 57.8 20.9375C57.8 18.7163 57.0836 16.5861 55.8083 15.0155C54.5331 13.4449 52.8035 12.5625 51 12.5625C49.1965 12.5625 47.4669 13.4449 46.1917 15.0155C44.9164 16.5861 44.2 18.7163 44.2 20.9375C44.2 23.1587 44.9164 25.2889 46.1917 26.8595C47.4669 28.4301 49.1965 29.3125 51 29.3125Z" fill="black"/>
</svg>
