<svg width="67" height="67" viewBox="0 0 67 67" fill="none" xmlns="http://www.w3.org/2000/svg">
<path d="M0 67V0H8.375V6.7H67L58.625 23.45L67 40.2H8.375V67H0ZM31.4062 30.15C33.7094 30.15 35.6817 29.4934 37.3232 28.1802C38.9647 26.867 39.784 25.2903 39.7812 23.45C39.7812 21.6075 38.9605 20.0296 37.319 18.7164C35.6775 17.4032 33.7066 16.7478 31.4062 16.75C29.1031 16.75 27.1308 17.4066 25.4893 18.7198C23.8478 20.033 23.0285 21.6097 23.0312 23.45C23.0312 25.2925 23.852 26.8703 25.4935 28.1835C27.135 29.4967 29.1059 30.1522 31.4062 30.15Z" fill="black"/>
</svg>
